<svg width="112" height="31" viewBox="0 0 112 31" fill="none" xmlns="http://www.w3.org/2000/svg">
<g clip-path="url(#clip0_10767_44364)">
<path d="M8.19946 31.0001C8.6531 30.5947 9.11288 30.2072 9.50797 29.7701C10.5745 28.5902 11.282 27.1936 11.9063 25.7558C12.7559 23.799 13.5661 21.8258 14.4095 19.8657C14.9606 18.5852 15.4834 17.2909 16.0227 16.0042C16.5995 14.6284 17.176 13.2525 17.7553 11.8779C18.6691 9.71046 19.5846 7.54381 20.5001 5.37676C20.9512 4.30891 21.4102 3.24392 21.8544 2.17323C22.3584 0.95831 23.7312 0.0265463 25.0495 0.0261389C27.784 0.0261389 30.5182 0.0298056 33.2527 0.0228795C34.0502 0.0208424 35.1401 -0.136828 35.8099 0.403815C36.0756 0.618117 36.241 0.939162 36.3086 1.27243C36.3774 1.61344 36.3847 2.04734 36.2455 2.37164C35.5851 3.90924 34.9464 5.4562 34.2955 6.99746C32.9305 10.2279 31.5618 13.4571 30.1968 16.6875C28.4768 20.7576 26.7924 24.8428 25.0217 28.8905C24.4497 30.1979 23.323 30.9821 21.8516 30.9821C19.7259 30.9821 8.20028 30.9997 8.20028 30.9997L8.19946 31.0001Z" fill="#3866FF"/>
<path d="M7.39113 11.0974C9.272 11.0974 11.1525 11.1011 13.0333 11.0937C13.3347 11.0925 13.4391 11.1373 13.2986 11.4665C12.2264 13.9787 11.1607 16.4936 10.0962 19.009C9.71254 19.9155 9.32645 20.8212 8.9461 21.729C8.62062 22.5051 8.35572 23.3403 7.82102 24.0056C7.22327 24.75 6.3422 25.1056 5.53687 24.4342C4.90472 23.907 4.54894 23.1582 4.23491 22.4179C3.87217 21.5623 3.47339 20.7214 3.08731 19.8756C2.23981 18.019 1.396 16.1608 0.554233 14.3021C0.461704 14.0976 0.369175 13.8931 0.276237 13.6886C0.0825813 13.2608 -0.070951 12.813 0.0346793 12.3315C0.204588 11.557 0.849424 11.1011 1.78618 11.0986C3.65436 11.0937 5.52295 11.097 7.39113 11.097V11.0974Z" fill="#503AF2"/>
<path d="M25.0222 28.8908C24.4502 30.1982 23.3235 30.9723 21.8521 30.9825L25.0222 28.8908Z" fill="#3866FF"/>
<path d="M50.5817 20.8506H39.0304C39.0161 22.7549 39.8791 24.1507 41.369 24.7284C42.7954 25.2813 44.1268 24.9244 45.3477 23.7192C45.5762 23.4939 45.9398 23.2886 46.2489 23.2772C47.5737 23.2291 48.9011 23.2564 50.2411 23.2564C49.8251 26.1719 46.9338 28.4763 43.4967 28.7199C36.8789 29.1892 33.1147 24.5382 34.2807 17.3098C34.7646 14.3103 36.2504 11.9913 39.2572 11.0152C42.4368 9.98235 45.568 10.129 48.1555 12.5059C50.5543 14.7092 50.8499 17.6267 50.5817 20.8506ZM39.0697 17.7844H45.8546C45.6618 15.3236 44.4974 14.2109 42.2951 14.2908C40.2595 14.3645 39.125 15.575 39.0697 17.7844Z" fill="#00156A"/>
<path d="M103.129 28.7484C97.6928 28.7484 94.1284 25.0902 94.1604 19.5444C94.1919 14.0638 97.7408 10.4708 103.125 10.4688C108.509 10.4667 111.999 14.0577 111.998 19.599C111.996 25.1264 108.485 28.7488 103.129 28.7484ZM107.158 19.8809C107.163 19.5643 107.151 19.2453 107.125 18.9214C107.089 18.4696 107.068 18.0251 106.972 17.5794C106.518 15.4771 105.233 14.4989 103.061 14.5197C100.976 14.5397 99.6769 15.5081 99.3657 17.6169C99.1643 18.9822 99.1782 20.4281 99.3932 21.7917C99.701 23.7449 100.974 24.6717 102.943 24.73C103.8 24.7553 104.703 24.6416 105.433 24.1625C106.142 23.6972 106.576 22.9418 106.809 22.1445C107.025 21.4047 107.146 20.6522 107.158 19.8809Z" fill="#00156A"/>
<path d="M51.633 28.0937C51.2989 26.0403 51.4757 24.3222 53.0872 22.7133C55.4958 20.3083 57.6166 17.6206 60.0699 14.8118H52.245V11.0938H66.2001C66.3647 13.0559 66.5809 14.8652 64.8404 16.534C62.3806 18.8934 60.2279 21.5668 57.746 24.3259H66.4797V28.0933H51.6325L51.633 28.0937Z" fill="#00156A"/>
<path d="M92.4338 15.2278C92.3458 12.5673 90.2925 10.7319 87.5994 10.5066C85.3582 10.3188 83.4376 10.9014 82.1774 12.9238C79.5498 9.56305 75.8019 9.56794 72.4197 12.9332L72.3076 11.0546H67.9648V28.1156H72.6335C72.6335 28.1156 72.5667 17.6825 72.7198 16.7756C72.9684 15.304 74.0955 14.4753 75.5755 14.5246C77.7467 14.5963 77.8924 16.45 77.8945 18.1877C77.8965 20.1763 77.8986 22.1653 77.9002 24.1539C77.901 25.0812 77.9015 26.0085 77.9015 26.9357C77.9015 26.9402 77.9023 26.9484 77.9027 26.9529V28.1181H82.6679C82.6679 28.1181 82.6667 27.1175 82.6679 26.666C82.6786 23.4833 82.6282 20.2989 82.722 17.1166C82.7756 15.2897 83.7819 14.4741 85.5547 14.5225C87.1003 14.5645 87.7865 15.2799 87.8352 17.1341C87.8659 18.3075 87.8761 19.4816 87.879 20.6554V23.4136C87.879 23.7599 87.8778 24.1058 87.8782 24.4521C87.8782 24.7548 87.8786 25.0576 87.879 25.3603V28.1185H92.4719C92.4719 23.7624 92.5755 19.491 92.4338 15.2278Z" fill="#00156A"/>
</g>
<defs>
<clipPath id="clip0_10767_44364">
<rect width="112" height="31" fill="white"/>
</clipPath>
</defs>
</svg>
