<svg width="47" height="40" viewBox="0 0 47 40" fill="none" xmlns="http://www.w3.org/2000/svg">
<g clip-path="url(#clip0_10707_242411)">
<path d="M10.5298 40C11.1123 39.4769 11.7026 38.977 12.2099 38.4129C13.5794 36.8905 14.4878 35.0884 15.2895 33.2332C16.3803 30.7083 17.4206 28.1623 18.5036 25.6332C19.2112 23.9809 19.8825 22.3108 20.5748 20.6506C21.3155 18.8753 22.0557 17.1001 22.7996 15.3263C23.9729 12.5296 25.1484 9.73397 26.3239 6.93778C26.9032 5.55993 27.4925 4.18575 28.0629 2.80422C28.71 1.23658 30.4727 0.0343122 32.1654 0.0337865C35.6766 0.0337865 39.1872 0.0385178 42.6983 0.0295809C43.7224 0.0269524 45.1218 -0.176493 45.9818 0.521109C46.323 0.797626 46.5354 1.21188 46.6221 1.6419C46.7104 2.08191 46.7199 2.64178 46.5412 3.06023C45.6932 5.04422 44.8731 7.04029 44.0373 9.02901C42.2846 13.1973 40.5272 17.364 38.7745 21.5322C36.566 26.7839 34.4033 32.0551 32.1297 37.2779C31.3953 38.9649 29.9486 39.9769 28.0592 39.9769C25.3298 39.9769 10.5308 39.9995 10.5308 39.9995L10.5298 40Z" fill="#3866FF"/>
<path d="M9.48996 14.3212C11.905 14.3212 14.3196 14.3259 16.7346 14.3164C17.1215 14.3149 17.2556 14.3727 17.0753 14.7975C15.6985 18.0389 14.3301 21.284 12.9633 24.5297C12.4707 25.6994 11.9749 26.868 11.4866 28.0393C11.0686 29.0407 10.7285 30.1184 10.0419 30.9769C9.27442 31.9373 8.14312 32.3963 7.10907 31.5299C6.2974 30.8496 5.84056 29.8834 5.43735 28.9282C4.97158 27.8243 4.45956 26.7392 3.96382 25.6479C2.87563 23.2523 1.79216 20.8545 0.711326 18.4563C0.592518 18.1924 0.47371 17.9285 0.354377 17.6646C0.105722 17.1126 -0.0914151 16.5349 0.044215 15.9135C0.26238 14.9142 1.09035 14.3259 2.29315 14.3227C4.69191 14.3164 7.0912 14.3206 9.48996 14.3206V14.3212Z" fill="#503AF2"/>
<path d="M32.1281 37.2793C31.3937 38.9663 29.947 39.9651 28.0576 39.9782L32.1281 37.2793Z" fill="#3866FF"/>
</g>
<defs>
<clipPath id="clip0_10707_242411">
<rect width="46.6836" height="40" fill="white"/>
</clipPath>
</defs>
</svg>
